<?xml version="1.0" encoding="utf-8"?>
<!-- Generator: Adobe Illustrator 16.0.0, SVG Export Plug-In . SVG Version: 6.00 Build 0)  -->
<!DOCTYPE svg PUBLIC "-//W3C//DTD SVG 1.1//EN" "http://www.w3.org/Graphics/SVG/1.1/DTD/svg11.dtd">
<svg version="1.1" id="Layer_1" xmlns="http://www.w3.org/2000/svg" xmlns:xlink="http://www.w3.org/1999/xlink" x="0px" y="0px"
	 width="782.444px" height="195.928px" viewBox="59.445 184.14 782.444 195.928"
	 enable-background="new 59.445 184.14 782.444 195.928" xml:space="preserve">
<path fill="#2D333A" d="M81.798,320.921c0-28.944,13.843-51.596,42.786-51.596c16.36,0,25.169,7.55,30.202,18.876v-16.36h30.203
	v104.45h-30.203v-16.359c-5.033,10.066-13.842,17.617-30.202,17.617c-28.943,0-42.786-21.393-42.786-51.596 M113.259,328.472
	c0,15.102,6.292,26.426,20.135,26.426c12.584,0,20.135-10.066,20.135-23.91v-11.324c0-15.102-6.292-23.911-20.135-23.911
	c-13.843-1.258-20.135,10.067-20.135,25.169V328.472z"/>
<path fill="#2D333A" d="M251.686,270.584c12.585,0,23.91,2.517,30.202,7.55l-7.55,22.652c-5.034-2.518-12.585-5.034-21.394-5.034
	c-17.618,0-25.169,10.067-25.169,26.427v6.293c0,16.359,7.551,26.426,25.169,26.426c8.809,0,16.359-2.516,21.394-5.033l7.55,22.652
	c-6.292,5.033-17.617,7.551-30.202,7.551c-37.753,0-54.112-20.135-54.112-51.596v-6.293
	C197.573,289.46,213.933,270.584,251.686,270.584"/>
<path fill="#2D333A" d="M285.663,328.472v-8.809c0-30.203,16.359-49.08,51.596-49.08c32.72,0,46.563,20.135,46.563,49.08v16.359
	h-66.697c1.259,13.842,7.551,20.135,25.169,20.135c11.325,0,23.91-2.518,33.978-6.293l6.292,21.393
	c-8.809,3.775-25.169,7.551-40.27,7.551C300.765,378.808,285.663,359.933,285.663,328.472 M317.124,314.628h37.753v-2.516
	c0-11.326-5.033-20.136-18.876-20.136C323.416,291.977,317.124,300.787,317.124,314.628"/>
<path fill="#2D333A" d="M502.114,328.472c0,28.943-13.843,51.596-42.787,51.596c-16.359,0-26.427-7.551-31.461-17.619v16.359
	h-30.201v-159.82l31.46-2.517v70.472c5.034-8.809,15.102-16.359,28.944-16.359c28.943,0,42.786,21.393,42.786,51.595
	 M470.653,320.921c0-15.102-6.292-25.169-21.394-25.169c-12.584,0-20.135,8.81-20.135,23.911v10.066
	c0,15.102,7.551,23.91,20.135,23.91c15.102,0,21.394-11.326,21.394-25.168V320.921z"/>
<path fill="#2D333A" d="M512.181,327.212v-5.033c0-30.202,17.618-51.595,51.596-51.595c35.235,0,52.854,21.393,52.854,51.595v5.033
	c0,30.203-17.618,51.596-51.596,51.596C529.799,378.808,512.181,357.416,512.181,327.212 M585.17,319.664
	c0-13.844-6.293-25.169-20.136-25.169c-15.101,0-20.135,11.326-20.135,25.169v10.066c0,13.844,6.292,25.168,20.135,25.168
	c15.102,0,20.136-11.324,20.136-25.168V319.664z"/>
<path fill="#2D333A" d="M626.698,327.212v-5.033c0-30.202,17.618-51.595,51.596-51.595c35.236,0,51.596,21.393,51.596,51.595v5.033
	c0,30.203-17.618,51.596-51.596,51.596S626.698,357.416,626.698,327.212 M699.687,319.664c0-13.844-6.292-25.169-20.135-25.169
	c-15.102,0-20.135,11.326-20.135,25.169v10.066c0,13.844,6.292,25.168,20.135,25.168c15.101,0,20.135-11.324,20.135-25.168V319.664z
	"/>
<polyline fill="#2D333A" points="775.193,322.179 806.654,271.842 840.631,271.842 806.654,323.437 841.889,377.55 807.911,377.55 
	775.193,325.955 775.193,377.55 743.732,377.55 743.732,218.988 775.193,216.471 "/>
</svg>
