<?xml version="1.0" encoding="utf-8"?>
<!-- Generator: Adobe Illustrator 16.0.0, SVG Export Plug-In . SVG Version: 6.00 Build 0)  -->
<!DOCTYPE svg PUBLIC "-//W3C//DTD SVG 1.1//EN" "http://www.w3.org/Graphics/SVG/1.1/DTD/svg11.dtd">
<svg version="1.1" id="Layer_1" xmlns="http://www.w3.org/2000/svg" xmlns:xlink="http://www.w3.org/1999/xlink" x="0px" y="0px"
	 width="182.827px" height="182.828px" viewBox="90.85 207.249 182.827 182.828"
	 enable-background="new 90.85 207.249 182.827 182.828" xml:space="preserve">
<g id="Layer_2_1_">
	<g>
		
			<rect x="169.336" y="286.393" transform="matrix(0.9482 -0.3176 0.3176 0.9482 -85.4717 73.3388)" fill="#FFFFFF" width="25.723" height="24.845"/>
		<g>
			
				<rect x="169.336" y="286.393" transform="matrix(0.9482 -0.3176 0.3176 0.9482 -85.4717 73.3388)" fill="#FFFFFF" width="25.723" height="24.845"/>
			<path fill="#FFFFFF" d="M234.227,314.302l-11.84,3.947l4.093,12.277c1.607,4.969-1.022,10.377-5.991,11.983
				c-1.023,0.293-2.192,0.586-3.217,0.439c-3.8-0.146-7.453-2.631-8.77-6.433l-4.094-12.276L180,332.426l4.093,12.277
				c1.606,4.969-1.022,10.377-5.992,11.984c-1.022,0.293-2.192,0.586-3.216,0.438c-3.801-0.146-7.454-2.631-8.77-6.432
				l-4.094-12.277l-11.839,3.945c-1.022,0.293-2.192,0.586-3.216,0.438c-3.801-0.146-7.454-2.631-8.77-6.432
				c-1.607-4.969,1.022-10.377,5.991-11.984l11.841-3.947l-7.895-23.531l-11.84,3.945c-1.022,0.293-2.191,0.586-3.215,0.439
				c-3.801-0.146-7.455-2.631-8.771-6.432c-1.606-4.969,1.022-10.377,5.993-11.984l11.839-3.945l-4.093-12.279
				c-1.607-4.969,1.023-10.377,5.992-11.984c4.97-1.607,10.377,1.023,11.986,5.992l4.092,12.277l24.408-8.185l-4.093-12.276
				c-1.606-4.971,1.022-10.379,5.993-11.986c4.969-1.607,10.377,1.023,11.984,5.994l4.092,12.276l11.841-3.946
				c4.969-1.607,10.377,1.023,11.983,5.994c1.608,4.969-1.021,10.377-5.992,11.984l-11.838,3.945l7.893,23.532l11.839-3.946
				c4.97-1.607,10.378,1.023,11.985,5.994C241.826,307.287,239.195,312.695,234.227,314.302z"/>
		</g>
	</g>
</g>
<g id="Layer_1_1_">
</g>
<g id="Layer_3">
</g>
<g id="Layer_4">
</g>
<g id="Layer_2">
	<g>
		
			<rect x="169.406" y="286.393" transform="matrix(0.9482 -0.3176 0.3176 0.9482 -85.4681 73.3611)" fill="#2D333A" width="25.723" height="24.845"/>
		<g>
			
				<rect x="169.406" y="286.393" transform="matrix(0.9482 -0.3176 0.3176 0.9482 -85.4681 73.3611)" fill="#2D333A" width="25.723" height="24.845"/>
			<path fill="#2D333A" d="M266.014,273.523c-18.854-62.85-46.041-77.465-108.891-58.611c-62.85,18.855-77.465,46.041-58.609,108.89
				c18.854,62.851,46.041,77.467,108.889,58.611C270.252,363.558,284.868,336.373,266.014,273.523z M234.297,314.302l-11.84,3.947
				l4.093,12.277c1.607,4.969-1.022,10.377-5.991,11.983c-1.023,0.293-2.192,0.586-3.217,0.439c-3.8-0.146-7.453-2.631-8.77-6.433
				l-4.094-12.276l-24.408,8.186l4.093,12.277c1.606,4.969-1.022,10.377-5.992,11.984c-1.022,0.293-2.192,0.586-3.216,0.438
				c-3.801-0.146-7.454-2.631-8.77-6.432l-4.094-12.277l-11.839,3.945c-1.022,0.293-2.192,0.586-3.216,0.438
				c-3.801-0.146-7.454-2.631-8.77-6.432c-1.607-4.969,1.022-10.377,5.991-11.984l11.841-3.947l-7.895-23.531l-11.84,3.945
				c-1.022,0.293-2.191,0.586-3.215,0.439c-3.801-0.146-7.455-2.631-8.771-6.432c-1.606-4.969,1.022-10.377,5.993-11.984
				l11.839-3.945l-4.093-12.279c-1.607-4.969,1.023-10.377,5.992-11.984c4.97-1.607,10.377,1.023,11.986,5.992l4.092,12.277
				l24.408-8.185l-4.093-12.276c-1.606-4.971,1.022-10.379,5.993-11.986c4.969-1.607,10.377,1.023,11.984,5.994l4.092,12.276
				l11.841-3.946c4.969-1.607,10.377,1.023,11.983,5.994c1.608,4.969-1.021,10.377-5.992,11.984l-11.838,3.945l7.893,23.532
				l11.839-3.946c4.97-1.607,10.378,1.023,11.985,5.994C241.896,307.287,239.266,312.695,234.297,314.302z"/>
		</g>
	</g>
</g>
</svg>
