<?xml version="1.0" encoding="utf-8"?>
<!-- Generator: Adobe Illustrator 16.0.0, SVG Export Plug-In . SVG Version: 6.00 Build 0)  -->
<!DOCTYPE svg PUBLIC "-//W3C//DTD SVG 1.1//EN" "http://www.w3.org/Graphics/SVG/1.1/DTD/svg11.dtd">
<svg version="1.1" id="Layer_1" xmlns="http://www.w3.org/2000/svg" xmlns:xlink="http://www.w3.org/1999/xlink" x="0px" y="0px"
	 width="461.434px" height="184.826px" viewBox="277.445 205.252 461.434 184.826"
	 enable-background="new 277.445 205.252 461.434 184.826" xml:space="preserve">
<g id="Layer_1_1_">
</g>
<g id="Layer_3">
</g>
<g id="Layer_4">
</g>
<g id="Layer_2">
	<g>
		<path fill="#2D333A" d="M385.135,255.984c5.7,2.484,6.139,4.385,1.608,12.862c-4.531,8.77-5.7,9.208-11.255,7.016
			c-7.016-3.069-16.078-5.262-21.924-5.262c-9.501,0-15.932,3.362-15.932,8.624c0,17.101,54.664,7.893,54.664,44.434
			c0,18.416-15.785,30.693-39.464,30.693c-12.424,0-27.771-4.094-38.44-9.5c-5.262-2.631-5.554-4.24-1.022-13.01
			c3.946-7.746,5.262-8.477,10.962-6.139c9.062,3.947,20.463,7.016,28.209,7.016c8.77,0,14.47-3.508,14.47-8.77
			c0-16.662-55.688-8.77-55.688-44.14c0-18.855,15.64-31.425,39.172-31.425C361.604,248.238,375.489,251.599,385.135,255.984z"/>
		<path fill="#2D333A" d="M429.276,212.574v136.222c0,2.047-2.192,4.238-5.262,4.238h-14.323c-3.069,0-5.262-2.191-5.262-4.238
			V212.574c0-6.724,1.899-7.308,12.424-7.308C428.837,205.12,429.276,205.997,429.276,212.574z"/>
		<path fill="#2D333A" d="M531.151,289.163v58.61c0,3.07-2.192,5.262-5.262,5.262h-14.178c-3.216,0-5.555-2.338-5.262-5.553
			l0.146-6.285c-7.746,8.477-18.708,13.008-29.671,13.008c-21.339,0-35.663-12.424-35.663-30.84
			c0-19.586,16.224-32.887,40.486-32.887c9.209,0,17.686,1.608,24.556,4.531v-6.724c0-10.816-8.478-17.247-22.947-17.247
			c-6.724,0-15.055,2.631-21.632,6.578c-5.116,2.923-6.285,2.631-11.839-5.554c-5.408-8.185-5.263-9.793,0-13.155
			c9.938-6.431,23.531-10.523,35.955-10.523C513.611,248.238,531.151,263.438,531.151,289.163z M465.085,323.072
			c0,7.016,5.847,11.693,14.908,11.693c10.816,0,20.609-5.262,26.31-14.031v-9.209c-5.7-2.191-12.716-3.361-18.854-3.361
			C474.001,308.164,465.085,314.449,465.085,323.072z"/>
		<path fill="#2D333A" d="M628.348,256.13c5.262,3.069,5.408,4.677-0.293,13.447c-5.407,8.331-6.284,8.77-11.985,5.847
			c-4.385-2.339-11.254-4.239-17.101-4.239c-17.978,0-29.963,11.839-29.963,29.67c0,18.563,11.985,30.986,29.963,30.986
			c6.285,0,14.031-2.338,19.147-5.262c5.262-3.068,6.285-2.777,11.839,5.262c4.97,7.455,4.823,9.209,0.438,12.424
			c-8.039,5.555-20.608,9.793-31.717,9.793c-33.179,0-55.396-21.34-55.396-53.203c0-31.716,22.217-52.764,55.688-52.764
			C608.908,248.238,620.894,251.746,628.348,256.13z"/>
		<path fill="#2D333A" d="M736.799,340.173c4.093,5.262,2.485,7.162-7.893,10.961c-10.523,3.801-11.985,3.654-15.785-1.314
			L683.45,310.21l-13.301,12.861v25.725c0,2.047-2.192,4.238-5.262,4.238h-14.47c-3.069,0-5.262-2.191-5.262-4.238V212.574
			c0-6.724,1.899-7.308,12.424-7.308c11.984,0,12.423,0.877,12.423,7.308v77.465l40.634-39.025c4.53-4.239,7.016-3.946,14.908,1.315
			c8.77,5.7,9.5,7.308,5.262,11.4l-30.256,29.525L736.799,340.173z"/>
	</g>
</g>
</svg>
