<?xml version="1.0" encoding="utf-8"?>
<!-- Generator: Adobe Illustrator 16.0.0, SVG Export Plug-In . SVG Version: 6.00 Build 0)  -->
<!DOCTYPE svg PUBLIC "-//W3C//DTD SVG 1.1//EN" "http://www.w3.org/Graphics/SVG/1.1/DTD/svg11.dtd">
<svg version="1.1" id="Layer_1" xmlns="http://www.w3.org/2000/svg" xmlns:xlink="http://www.w3.org/1999/xlink" x="0px" y="0px"
	 width="283.037px" height="155.144px" viewBox="0 0 283.037 155.144" enable-background="new 0 0 283.037 155.144"
	 xml:space="preserve">
<line fill="none" stroke="#000000" stroke-width="2" stroke-miterlimit="10" x1="13.626" y1="77.572" x2="72.811" y2="30.633"/>
<line fill="none" stroke="#000000" stroke-width="2" stroke-miterlimit="10" x1="111.586" y1="77.572" x2="160.906" y2="30.633"/>
<line fill="none" stroke="#000000" stroke-width="2" stroke-miterlimit="10" x1="72.811" y1="30.633" x2="160.906" y2="31.496"/>
<line fill="none" stroke="#000000" stroke-width="2" stroke-miterlimit="10" x1="209.545" y1="77.572" x2="269.41" y2="13.626"/>
<line fill="none" stroke="#000000" stroke-width="2" stroke-miterlimit="10" x1="253.083" y1="77.572" x2="269.41" y2="13.626"/>
<line fill="none" stroke="#000000" stroke-width="2" stroke-miterlimit="10" x1="209.545" y1="77.572" x2="160.906" y2="31.496"/>
<line fill="none" stroke="#000000" stroke-width="2" stroke-miterlimit="10" x1="160.226" y1="123.648" x2="111.586" y2="77.572"/>
<line fill="none" stroke="#000000" stroke-width="2" stroke-miterlimit="10" x1="111.586" y1="77.572" x2="13.626" y2="77.572"/>
<line fill="none" stroke="#000000" stroke-width="2" stroke-miterlimit="10" x1="12.967" y1="77.573" x2="72.151" y2="124.511"/>
<line fill="none" stroke="#000000" stroke-width="2" stroke-miterlimit="10" x1="72.151" y1="124.511" x2="160.246" y2="123.648"/>
<line fill="none" stroke="#000000" stroke-width="2" stroke-miterlimit="10" x1="208.886" y1="77.573" x2="268.75" y2="141.518"/>
<line fill="none" stroke="#000000" stroke-width="2" stroke-miterlimit="10" x1="252.424" y1="77.572" x2="268.75" y2="141.518"/>
<line fill="none" stroke="#000000" stroke-width="2" stroke-miterlimit="10" x1="208.886" y1="77.573" x2="160.246" y2="123.648"/>
<circle fill="#E94E1B" stroke="#000000" stroke-width="0.7222" stroke-miterlimit="10" cx="13.627" cy="77.572" r="13.265"/>
<circle fill="#E94E1B" stroke="#000000" stroke-width="0.7222" stroke-miterlimit="10" cx="111.586" cy="77.572" r="13.265"/>
<circle fill="#E94E1B" stroke="#000000" stroke-width="0.7222" stroke-miterlimit="10" cx="209.546" cy="77.572" r="13.265"/>
<circle fill="#E94E1B" stroke="#000000" stroke-width="0.7222" stroke-miterlimit="10" cx="72.811" cy="30.634" r="13.265"/>
<circle fill="#E94E1B" stroke="#000000" stroke-width="0.7222" stroke-miterlimit="10" cx="160.906" cy="30.634" r="13.265"/>
<circle fill="#E94E1B" stroke="#000000" stroke-width="0.7222" stroke-miterlimit="10" cx="72.811" cy="124.511" r="13.265"/>
<circle fill="#E94E1B" stroke="#000000" stroke-width="0.7222" stroke-miterlimit="10" cx="160.906" cy="124.511" r="13.265"/>
<circle fill="#E94E1B" stroke="#000000" stroke-width="0.7222" stroke-miterlimit="10" cx="269.41" cy="13.627" r="13.265"/>
<circle fill="#E94E1B" stroke="#000000" stroke-width="0.7222" stroke-miterlimit="10" cx="253.083" cy="77.572" r="13.265"/>
<circle fill="#E94E1B" stroke="#000000" stroke-width="0.7222" stroke-miterlimit="10" cx="269.41" cy="141.517" r="13.265"/>
</svg>
