<?xml version="1.0" encoding="utf-8"?>
<!-- Generator: Adobe Illustrator 16.0.0, SVG Export Plug-In . SVG Version: 6.00 Build 0)  -->
<!DOCTYPE svg PUBLIC "-//W3C//DTD SVG 1.1//EN" "http://www.w3.org/Graphics/SVG/1.1/DTD/svg11.dtd">
<svg version="1.1" id="Layer_1" xmlns="http://www.w3.org/2000/svg" xmlns:xlink="http://www.w3.org/1999/xlink" x="0px" y="0px"
	 width="379.69px" height="112.108px" viewBox="0 0 379.69 112.108" enable-background="new 0 0 379.69 112.108"
	 xml:space="preserve">
<g>
	<path fill="#2E343B" d="M88.88,53.375H58.612c-0.781,0-1.414,0.634-1.414,1.415v14.798c0,0.78,0.633,1.416,1.414,1.416H70.42V89.39
		c0,0-2.651,0.904-9.98,0.904c-8.648,0-20.728-3.16-20.728-29.724c0-26.569,12.579-30.065,24.388-30.065
		c10.223,0,14.627,1.8,17.429,2.667c0.881,0.27,1.695-0.607,1.695-1.388L86.6,17.486c0-0.366-0.124-0.806-0.54-1.105
		c-1.139-0.812-8.081-4.697-25.62-4.697c-20.207,0-40.933,8.597-40.933,49.922c0,41.326,23.73,47.484,43.727,47.484
		c16.557,0,26.602-7.075,26.602-7.075c0.414-0.229,0.458-0.808,0.458-1.072V54.791C90.293,54.009,89.661,53.375,88.88,53.375z"/>
	<path fill="#2E343B" d="M244.863,16.636c0-0.787-0.624-1.423-1.405-1.423h-17.042c-0.778,0-1.411,0.636-1.411,1.423
		c0,0.003,0.005,32.935,0.005,32.935h-26.565V16.636c0-0.787-0.626-1.423-1.406-1.423h-17.042c-0.776,0-1.408,0.636-1.408,1.423
		v89.177c0,0.787,0.632,1.428,1.408,1.428h17.042c0.779,0,1.406-0.641,1.406-1.428V67.669h26.565c0,0-0.047,38.143-0.047,38.145
		c0,0.787,0.632,1.428,1.411,1.428h17.083c0.78,0,1.404-0.641,1.406-1.428V16.636z"/>
	<g>
		<g>
			<path fill="#2E343B" d="M121.039,28.338c0-6.137-4.92-11.095-10.99-11.095c-6.063,0-10.987,4.958-10.987,11.095
				c0,6.13,4.923,11.103,10.987,11.103C116.119,39.441,121.039,34.469,121.039,28.338z"/>
			<path fill="#2E343B" d="M119.82,87.002c0-2.284,0-41.165,0-41.165c0-0.781-0.63-1.42-1.41-1.42h-16.988
				c-0.779,0-1.477,0.804-1.477,1.585c0,0,0,49.534,0,58.977c0,1.732,1.08,2.248,2.478,2.248c0,0,7.251,0,15.306,0
				c1.68,0,2.091-0.825,2.091-2.276C119.82,101.79,119.82,89.406,119.82,87.002z"/>
		</g>
	</g>
	<path fill="#2E343B" d="M309.631,44.551H292.72c-0.776,0-1.407,0.639-1.407,1.426v43.727c0,0-4.297,3.143-10.395,3.143
		s-7.716-2.767-7.716-8.737c0-5.978,0-38.132,0-38.132c0-0.787-0.63-1.426-1.406-1.426h-17.164c-0.774,0-1.409,0.639-1.409,1.426
		c0,0,0,23.286,0,41.02s9.884,22.073,23.481,22.073c11.155,0,20.149-6.163,20.149-6.163s0.429,3.248,0.622,3.633
		s0.698,0.772,1.244,0.772l10.919-0.048c0.774,0,1.409-0.641,1.409-1.425l-0.006-59.863C311.042,45.19,310.41,44.551,309.631,44.551
		z"/>
	<path fill="#2E343B" d="M355.853,42.548c-9.604,0-16.138,4.286-16.138,4.286V16.636c0-0.787-0.63-1.423-1.406-1.423h-17.091
		c-0.777,0-1.408,0.636-1.408,1.423v89.177c0,0.787,0.631,1.428,1.41,1.428c0.002,0,11.854,0,11.857,0
		c0.534,0,0.938-0.276,1.237-0.758c0.295-0.479,0.72-4.111,0.72-4.111s6.988,6.622,20.218,6.622
		c15.531,0,24.438-7.878,24.438-35.366C379.69,46.14,365.465,42.548,355.853,42.548z M349.183,92.793
		c-5.866-0.179-9.845-2.841-9.845-2.841v-28.24c0,0,3.925-2.406,8.741-2.836c6.09-0.545,11.958,1.294,11.958,15.822
		C360.037,90.017,357.389,93.04,349.183,92.793z"/>
	<path fill="#2E343B" d="M168.8,44.409h-12.784c0,0-0.019-16.885-0.019-16.889c0-0.64-0.33-0.959-1.069-0.959h-17.42
		c-0.677,0-1.041,0.298-1.041,0.949v17.452c0,0-8.731,2.107-9.321,2.278c-0.587,0.17-1.02,0.712-1.02,1.359v10.967
		c0,0.789,0.63,1.425,1.409,1.425h8.932c0,0,0,11.47,0,26.384c0,19.597,13.746,21.521,23.021,21.521
		c4.238,0,9.308-1.361,10.146-1.67c0.506-0.186,0.8-0.711,0.8-1.279l0.014-12.064c0-0.786-0.664-1.424-1.413-1.424
		c-0.745,0-2.651,0.304-4.613,0.304c-6.279,0-8.407-2.919-8.407-6.699c0-3.776-0.001-25.073-0.001-25.073H168.8
		c0.779,0,1.411-0.636,1.411-1.425V45.83C170.211,45.043,169.58,44.409,168.8,44.409z"/>
</g>
</svg>
