<?xml version="1.0" encoding="utf-8"?>
<!-- Generator: Adobe Illustrator 16.0.0, SVG Export Plug-In . SVG Version: 6.00 Build 0)  -->
<!DOCTYPE svg PUBLIC "-//W3C//DTD SVG 1.1//EN" "http://www.w3.org/Graphics/SVG/1.1/DTD/svg11.dtd">
<svg version="1.1" id="Layer_1" xmlns="http://www.w3.org/2000/svg" xmlns:xlink="http://www.w3.org/1999/xlink" x="0px" y="0px"
	 width="491.798px" height="112.108px" viewBox="0 0 491.798 112.108" enable-background="new 0 0 491.798 112.108"
	 xml:space="preserve">
<circle fill="#FFFFFF" cx="56.054" cy="56.054" r="56.054"/>
<g>
	<path fill="#2E343B" d="M200.988,53.375H170.72c-0.781,0-1.414,0.634-1.414,1.415v14.798c0,0.78,0.633,1.416,1.414,1.416h11.808
		V89.39c0,0-2.651,0.904-9.98,0.904c-8.648,0-20.728-3.16-20.728-29.724c0-26.569,12.579-30.065,24.388-30.065
		c10.223,0,14.627,1.8,17.429,2.667c0.881,0.27,1.695-0.607,1.695-1.388l3.376-14.298c0-0.366-0.124-0.806-0.54-1.105
		c-1.139-0.812-8.081-4.697-25.62-4.697c-20.207,0-40.933,8.597-40.933,49.922c0,41.326,23.73,47.484,43.727,47.484
		c16.557,0,26.602-7.075,26.602-7.075c0.414-0.229,0.458-0.808,0.458-1.072V54.791C202.401,54.009,201.769,53.375,200.988,53.375z"
		/>
	<path fill="#2E343B" d="M356.971,16.636c0-0.787-0.624-1.423-1.405-1.423h-17.042c-0.778,0-1.411,0.636-1.411,1.423
		c0,0.003,0.005,32.935,0.005,32.935h-26.565V16.636c0-0.787-0.626-1.423-1.406-1.423h-17.042c-0.776,0-1.408,0.636-1.408,1.423
		v89.177c0,0.787,0.632,1.428,1.408,1.428h17.042c0.779,0,1.406-0.641,1.406-1.428V67.669h26.565c0,0-0.047,38.143-0.047,38.145
		c0,0.787,0.632,1.428,1.411,1.428h17.083c0.78,0,1.404-0.641,1.406-1.428V16.636z"/>
	<g>
		<g>
			<path fill="#2E343B" d="M233.147,28.338c0-6.137-4.92-11.095-10.99-11.095c-6.063,0-10.987,4.958-10.987,11.095
				c0,6.13,4.923,11.103,10.987,11.103C228.227,39.441,233.147,34.469,233.147,28.338z"/>
			<path fill="#2E343B" d="M231.928,87.002c0-2.284,0-41.165,0-41.165c0-0.781-0.63-1.42-1.41-1.42H213.53
				c-0.779,0-1.477,0.804-1.477,1.585c0,0,0,49.534,0,58.977c0,1.732,1.08,2.248,2.478,2.248c0,0,7.251,0,15.306,0
				c1.68,0,2.091-0.825,2.091-2.276C231.928,101.79,231.928,89.406,231.928,87.002z"/>
		</g>
	</g>
	<path fill="#2E343B" d="M421.739,44.551h-16.911c-0.776,0-1.407,0.639-1.407,1.426v43.727c0,0-4.297,3.143-10.395,3.143
		s-7.716-2.767-7.716-8.737c0-5.978,0-38.132,0-38.132c0-0.787-0.63-1.426-1.406-1.426H366.74c-0.774,0-1.409,0.639-1.409,1.426
		c0,0,0,23.286,0,41.02s9.884,22.073,23.481,22.073c11.155,0,20.149-6.163,20.149-6.163s0.429,3.248,0.622,3.633
		s0.698,0.772,1.244,0.772l10.919-0.048c0.774,0,1.409-0.641,1.409-1.425l-0.006-59.863C423.15,45.19,422.518,44.551,421.739,44.551
		z"/>
	<path fill="#2E343B" d="M467.96,42.548c-9.604,0-16.138,4.286-16.138,4.286V16.636c0-0.787-0.63-1.423-1.406-1.423h-17.091
		c-0.777,0-1.408,0.636-1.408,1.423v89.177c0,0.787,0.631,1.428,1.41,1.428c0.002,0,11.854,0,11.857,0
		c0.534,0,0.938-0.276,1.237-0.758c0.295-0.479,0.72-4.111,0.72-4.111s6.988,6.622,20.218,6.622
		c15.531,0,24.438-7.878,24.438-35.366C491.798,46.14,477.573,42.548,467.96,42.548z M461.291,92.793
		c-5.866-0.179-9.845-2.841-9.845-2.841v-28.24c0,0,3.925-2.406,8.741-2.836c6.09-0.545,11.958,1.294,11.958,15.822
		C472.145,90.017,469.497,93.04,461.291,92.793z"/>
	<path fill="#2E343B" d="M280.908,44.409h-12.784c0,0-0.019-16.885-0.019-16.889c0-0.64-0.33-0.959-1.069-0.959h-17.42
		c-0.677,0-1.041,0.298-1.041,0.949v17.452c0,0-8.731,2.107-9.321,2.278c-0.587,0.17-1.02,0.712-1.02,1.359v10.967
		c0,0.789,0.63,1.425,1.409,1.425h8.932c0,0,0,11.47,0,26.384c0,19.597,13.746,21.521,23.021,21.521
		c4.238,0,9.308-1.361,10.146-1.67c0.506-0.186,0.8-0.711,0.8-1.279l0.014-12.064c0-0.786-0.664-1.424-1.413-1.424
		c-0.745,0-2.651,0.304-4.613,0.304c-6.279,0-8.407-2.919-8.407-6.699c0-3.776-0.001-25.073-0.001-25.073h12.785
		c0.779,0,1.411-0.636,1.411-1.425V45.83C282.319,45.043,281.688,44.409,280.908,44.409z"/>
</g>
<g>
	<path fill-rule="evenodd" clip-rule="evenodd" fill="#2E343B" d="M56.054,0C25.101,0,0,25.096,0,56.054
		c0,24.767,16.061,45.778,38.333,53.191c2.801,0.519,3.83-1.217,3.83-2.698c0-1.336-0.051-5.752-0.076-10.436
		c-15.594,3.391-18.885-6.613-18.885-6.613c-2.55-6.479-6.224-8.202-6.224-8.202c-5.086-3.479,0.383-3.408,0.383-3.408
		c5.628,0.396,8.593,5.778,8.593,5.778c4.999,8.567,13.113,6.091,16.312,4.659c0.503-3.622,1.955-6.098,3.559-7.497
		c-12.451-1.416-25.54-6.224-25.54-27.701c0-6.12,2.19-11.121,5.776-15.046c-0.582-1.413-2.501-7.113,0.543-14.835
		c0,0,4.707-1.505,15.418,5.747c4.472-1.243,9.267-1.865,14.031-1.887c4.763,0.022,9.562,0.645,14.042,1.887
		c10.7-7.252,15.399-5.747,15.399-5.747c3.051,7.722,1.133,13.422,0.551,14.835c3.593,3.925,5.769,8.926,5.769,15.046
		c0,21.53-13.113,26.27-25.596,27.658c2.011,1.738,3.802,5.15,3.802,10.379c0,7.5-0.065,13.537-0.065,15.383
		c0,1.492,1.01,3.24,3.851,2.69c22.26-7.42,38.301-28.425,38.301-53.183C112.108,25.096,87.011,0,56.054,0z"/>
	<path fill="#2E343B" d="M21.231,80.482c-0.124,0.279-0.562,0.362-0.961,0.17c-0.407-0.183-0.635-0.562-0.503-0.841
		c0.121-0.287,0.56-0.366,0.965-0.176C21.139,79.818,21.371,80.203,21.231,80.482L21.231,80.482z M20.541,79.971"/>
	<path fill="#2E343B" d="M23.501,83.015c-0.268,0.247-0.791,0.133-1.145-0.259c-0.367-0.392-0.435-0.914-0.164-1.166
		c0.276-0.247,0.782-0.131,1.149,0.259C23.709,82.244,23.781,82.763,23.501,83.015L23.501,83.015z M22.967,82.44"/>
	<path fill="#2E343B" d="M25.711,86.242c-0.343,0.239-0.905,0.016-1.253-0.482c-0.343-0.499-0.343-1.097,0.008-1.336
		c0.347-0.239,0.901-0.024,1.253,0.47C26.063,85.4,26.063,85.999,25.711,86.242L25.711,86.242z M25.711,86.242"/>
	<path fill="#2E343B" d="M28.739,89.362c-0.308,0.339-0.962,0.246-1.44-0.216c-0.491-0.452-0.626-1.094-0.319-1.433
		c0.312-0.339,0.97-0.243,1.452,0.216C28.918,88.381,29.066,89.026,28.739,89.362L28.739,89.362z M28.739,89.362"/>
	<path fill="#2E343B" d="M32.916,91.173c-0.136,0.439-0.766,0.639-1.4,0.452c-0.634-0.192-1.049-0.707-0.921-1.149
		c0.131-0.442,0.765-0.651,1.404-0.452C32.632,90.216,33.048,90.726,32.916,91.173L32.916,91.173z M32.916,91.173"/>
	<path fill="#2E343B" d="M37.504,91.509c0.016,0.462-0.523,0.845-1.189,0.854c-0.67,0.015-1.213-0.358-1.22-0.813
		c0-0.468,0.526-0.847,1.196-0.858C36.958,90.679,37.504,91.05,37.504,91.509L37.504,91.509z M37.504,91.509"/>
	<path fill="#2E343B" d="M41.772,90.781c0.08,0.452-0.383,0.914-1.045,1.037c-0.651,0.12-1.253-0.159-1.336-0.605
		c-0.081-0.462,0.391-0.927,1.041-1.046C41.095,90.053,41.688,90.323,41.772,90.781L41.772,90.781z M41.772,90.781"/>
</g>
</svg>
