<?xml version="1.0" encoding="utf-8"?>
<!-- Generator: Adobe Illustrator 16.0.0, SVG Export Plug-In . SVG Version: 6.00 Build 0)  -->
<!DOCTYPE svg PUBLIC "-//W3C//DTD SVG 1.1//EN" "http://www.w3.org/Graphics/SVG/1.1/DTD/svg11.dtd">
<svg version="1.1" id="Layer_1" xmlns="http://www.w3.org/2000/svg" xmlns:xlink="http://www.w3.org/1999/xlink" x="0px" y="0px"
	 width="112.108px" height="112.108px" viewBox="0 0 112.108 112.108" enable-background="new 0 0 112.108 112.108"
	 xml:space="preserve">
<circle fill="#FFFFFF" cx="56.054" cy="56.054" r="56.054"/>
<g>
	<path fill-rule="evenodd" clip-rule="evenodd" fill="#2E343B" d="M56.054,0C25.101,0,0,25.096,0,56.054
		c0,24.767,16.061,45.778,38.333,53.191c2.801,0.519,3.83-1.217,3.83-2.698c0-1.336-0.051-5.752-0.076-10.436
		c-15.594,3.391-18.885-6.613-18.885-6.613c-2.55-6.479-6.224-8.202-6.224-8.202c-5.086-3.479,0.383-3.408,0.383-3.408
		c5.628,0.396,8.593,5.778,8.593,5.778c4.999,8.567,13.113,6.091,16.312,4.659c0.503-3.622,1.955-6.098,3.559-7.497
		c-12.451-1.416-25.54-6.224-25.54-27.701c0-6.12,2.19-11.121,5.776-15.046c-0.582-1.413-2.501-7.113,0.543-14.835
		c0,0,4.707-1.505,15.418,5.747c4.472-1.243,9.267-1.865,14.031-1.887c4.763,0.022,9.562,0.645,14.042,1.887
		c10.7-7.252,15.399-5.747,15.399-5.747c3.051,7.722,1.133,13.422,0.551,14.835c3.593,3.925,5.769,8.926,5.769,15.046
		c0,21.53-13.113,26.27-25.596,27.658c2.011,1.738,3.802,5.15,3.802,10.379c0,7.5-0.065,13.537-0.065,15.383
		c0,1.492,1.01,3.24,3.851,2.69c22.26-7.42,38.301-28.425,38.301-53.183C112.108,25.096,87.011,0,56.054,0z"/>
	<path fill="#2E343B" d="M21.231,80.482c-0.124,0.279-0.562,0.362-0.961,0.17c-0.407-0.183-0.635-0.562-0.503-0.841
		c0.121-0.287,0.56-0.366,0.965-0.176C21.139,79.818,21.371,80.203,21.231,80.482L21.231,80.482z M20.541,79.971"/>
	<path fill="#2E343B" d="M23.501,83.015c-0.268,0.247-0.791,0.133-1.145-0.259c-0.367-0.392-0.435-0.914-0.164-1.166
		c0.276-0.247,0.782-0.131,1.149,0.259C23.709,82.244,23.781,82.763,23.501,83.015L23.501,83.015z M22.967,82.44"/>
	<path fill="#2E343B" d="M25.711,86.242c-0.343,0.239-0.905,0.016-1.253-0.482c-0.343-0.499-0.343-1.097,0.008-1.336
		c0.347-0.239,0.901-0.024,1.253,0.47C26.063,85.4,26.063,85.999,25.711,86.242L25.711,86.242z M25.711,86.242"/>
	<path fill="#2E343B" d="M28.739,89.362c-0.308,0.339-0.962,0.246-1.44-0.216c-0.491-0.452-0.626-1.094-0.319-1.433
		c0.312-0.339,0.97-0.243,1.452,0.216C28.918,88.381,29.066,89.026,28.739,89.362L28.739,89.362z M28.739,89.362"/>
	<path fill="#2E343B" d="M32.916,91.173c-0.136,0.439-0.766,0.639-1.4,0.452c-0.634-0.192-1.049-0.707-0.921-1.149
		c0.131-0.442,0.765-0.651,1.404-0.452C32.632,90.216,33.048,90.726,32.916,91.173L32.916,91.173z M32.916,91.173"/>
	<path fill="#2E343B" d="M37.504,91.509c0.016,0.462-0.523,0.845-1.189,0.854c-0.67,0.015-1.213-0.358-1.22-0.813
		c0-0.468,0.526-0.847,1.196-0.858C36.958,90.679,37.504,91.05,37.504,91.509L37.504,91.509z M37.504,91.509"/>
	<path fill="#2E343B" d="M41.772,90.781c0.08,0.452-0.383,0.914-1.045,1.037c-0.651,0.12-1.253-0.159-1.336-0.605
		c-0.081-0.462,0.391-0.927,1.041-1.046C41.095,90.053,41.688,90.323,41.772,90.781L41.772,90.781z M41.772,90.781"/>
</g>
</svg>
